<svg width="155" height="129" viewBox="0 0 155 129" fill="none" xmlns="http://www.w3.org/2000/svg">
<g clip-path="url(#clip0)">
<path d="M120.558 100.606C143.632 77.5906 143.632 40.2761 120.558 17.2611C97.4837 -5.75381 60.073 -5.75381 36.9988 17.2611C13.9247 40.2761 13.9247 77.5906 36.9988 100.606C60.073 123.621 97.4837 123.621 120.558 100.606Z" fill="#E9F2F4"/>
<path d="M68.1899 27.3634C68.1899 30.5532 65.5964 33.14 62.3985 33.14C59.2005 33.14 56.6071 30.5532 56.6071 27.3634C56.6071 24.1737 59.2005 21.5869 62.3985 21.5869C65.5964 21.5903 68.1899 24.1771 68.1899 27.3634Z" fill="#F2A007"/>
<path d="M113.103 95.7353H123.244V53.3123L113.103 48.772V95.7353Z" fill="#D9E3E8"/>
<path d="M115.129 69.7258H105.133V95.7387H115.129V69.7258Z" fill="#D9E3E8"/>
<path d="M105.137 56.8625H95.7184V95.7353H105.137V56.8625Z" fill="#D9E3E8"/>
<path d="M102.368 46.4209H98.4875V85.2937H102.368V46.4209Z" fill="#D9E3E8"/>
<path d="M100.797 33.0356H100.051V71.9084H100.797V33.0356Z" fill="#D9E3E8"/>
<path d="M96.7315 67.4119H91.8046V95.7353H96.7315V67.4119Z" fill="#D9E3E8"/>
<path d="M92.9629 63.0769H87.4585V95.7353H92.9629V63.0769Z" fill="#D9E3E8"/>
<path d="M77.0272 95.7354H88.3264V40.2976L77.0272 46.3133V95.7354Z" fill="#D9E3E8"/>
<path d="M78.0403 57.8765H66.0152V95.7388H78.0403V57.8765Z" fill="#D9E3E8"/>
<path d="M67.1734 74.3506H61.6691V95.7389H67.1734V74.3506Z" fill="#D9E3E8"/>
<path d="M62.5369 63.5115H55.5839V95.7354H62.5369V63.5115Z" fill="#D9E3E8"/>
<path d="M40.9518 95.7352H55.7291V58.1625L48.3539 53.447L40.9518 58.1625V95.7352Z" fill="#D9E3E8"/>
<path d="M42.4004 69.2913H27.0423V95.7353H42.4004V69.2913Z" fill="#D9E3E8"/>
<path d="M28.491 51.9517H18.6405V95.7387H28.491V51.9517Z" fill="#D9E3E8"/>
<path d="M19.6536 65.3909H11.3971V95.7386H19.6536V65.3909Z" fill="#D9E3E8"/>
<path d="M134.708 65.9265H121.586V95.7354H134.708V65.9265Z" fill="#D9E3E8"/>
<path d="M143.346 70.0693H133.712V95.7353H143.346V70.0693Z" fill="#D9E3E8"/>
<path d="M41.644 97.7192H31.4998V66.8224L41.644 62.282V97.7192Z" fill="url(#paint0_linear)"/>
<path d="M39.6145 97.7192H49.6101V83.2358H39.6145V97.7192Z" fill="url(#paint1_linear)"/>
<path d="M59.0283 97.7193H49.6101V70.376H59.0283V97.7193Z" fill="url(#paint2_linear)"/>
<path d="M56.2593 90.3865H52.3792V59.9309H56.2593V90.3865Z" fill="url(#paint3_linear)"/>
<path d="M54.6924 85.4185H53.9461V46.5457H54.6924V85.4185Z" fill="url(#paint4_linear)"/>
<path d="M62.9388 97.7193H58.0153V80.9253H62.9388V97.7193Z" fill="url(#paint5_linear)"/>
<path d="M67.2849 97.7192H61.7805V76.5869H67.2849V97.7192Z" fill="url(#paint6_linear)"/>
<path d="M77.7161 97.7193H66.417V53.8076L77.7161 59.8267V97.7193Z" fill="url(#paint7_linear)"/>
<path d="M88.7282 97.7193H76.7031V71.3865H88.7282V97.7193Z" fill="url(#paint8_linear)"/>
<path d="M93.0743 97.7194H87.5699V87.8606H93.0743V97.7194Z" fill="url(#paint9_linear)"/>
<path d="M99.1595 97.7193H92.2064V77.0215H99.1595V97.7193Z" fill="url(#paint10_linear)"/>
<path d="M113.792 97.7191H99.0143V71.6759L106.389 66.957L113.792 71.6759V97.7191Z" fill="url(#paint11_linear)"/>
<path d="M127.701 97.7194H112.343V82.8015H127.701V97.7194Z" fill="url(#paint12_linear)"/>
<path d="M136.106 97.7193H126.252V65.4617H136.106V97.7193Z" fill="url(#paint13_linear)"/>
<path d="M143.35 97.7192H135.09V78.9009H143.35V97.7192Z" fill="url(#paint14_linear)"/>
<path d="M20.0352 97.7193H33.1578V79.4399H20.0352V97.7193Z" fill="url(#paint15_linear)"/>
<path d="M11.3971 97.7192H21.0314V83.5793H11.3971V97.7192Z" fill="url(#paint16_linear)"/>
<path d="M70.4051 61.0056H68.7572V65.4315H70.4051V61.0056Z" fill="#C5E6EE"/>
<path d="M74.525 61.0056H72.877V65.4315H74.525V61.0056Z" fill="#C5E6EE"/>
<path d="M70.4051 69.4126H68.7572V73.8385H70.4051V69.4126Z" fill="#C5E6EE"/>
<path d="M74.525 69.4126H72.877V73.8385H74.525V69.4126Z" fill="#C5E6EE"/>
<path d="M70.4051 77.823H68.7572V82.2488H70.4051V77.823Z" fill="#C5E6EE"/>
<path d="M74.525 77.823H72.877V82.2488H74.525V77.823Z" fill="#C5E6EE"/>
<path d="M70.4051 86.2302H68.7572V90.6561H70.4051V86.2302Z" fill="#C5E6EE"/>
<path d="M74.525 86.2302H72.877V90.6561H74.525V86.2302Z" fill="#C5E6EE"/>
<path d="M81.4341 74.5962H79.7862V79.022H81.4341V74.5962Z" fill="#C5E6EE"/>
<path d="M85.5539 74.5962H83.906V79.022H85.5539V74.5962Z" fill="#C5E6EE"/>
<path d="M81.4341 83.0068H79.7862V87.4327H81.4341V83.0068Z" fill="#C5E6EE"/>
<path d="M85.5539 83.0068H83.906V87.4327H85.5539V83.0068Z" fill="#C5E6EE"/>
<path d="M95.5057 78.7695H93.8577V83.1954H95.5057V78.7695Z" fill="#C5E6EE"/>
<path d="M99.6255 78.7695H97.9776V83.1954H99.6255V78.7695Z" fill="#C5E6EE"/>
<path d="M95.5057 87.1768H93.8577V91.6026H95.5057V87.1768Z" fill="#C5E6EE"/>
<path d="M99.6255 87.1768H97.9776V91.6026H99.6255V87.1768Z" fill="#C5E6EE"/>
<path d="M105.771 73.9666H104.124V78.3924H105.771V73.9666Z" fill="#C5E6EE"/>
<path d="M109.891 73.9666H108.243V78.3924H109.891V73.9666Z" fill="#C5E6EE"/>
<path d="M105.771 82.3735H104.124V86.7994H105.771V82.3735Z" fill="#C5E6EE"/>
<path d="M109.891 82.3735H108.243V86.7994H109.891V82.3735Z" fill="#C5E6EE"/>
<path d="M130.365 68.6548H128.718V73.0807H130.365V68.6548Z" fill="#C5E6EE"/>
<path d="M134.485 68.6548H132.837V73.0807H134.485V68.6548Z" fill="#C5E6EE"/>
<path d="M130.365 77.0618H128.718V81.4876H130.365V77.0618Z" fill="#C5E6EE"/>
<path d="M134.485 77.0618H132.837V81.4876H134.485V77.0618Z" fill="#C5E6EE"/>
<path d="M53.4159 72.3228H51.768V76.7486H53.4159V72.3228Z" fill="#C5E6EE"/>
<path d="M57.5357 72.3228H55.8878V76.7486H57.5357V72.3228Z" fill="#C5E6EE"/>
<path d="M53.4159 80.73H51.768V85.1558H53.4159V80.73Z" fill="#C5E6EE"/>
<path d="M57.5357 80.73H55.8878V85.1558H57.5357V80.73Z" fill="#C5E6EE"/>
<path d="M35.5419 68.5269H33.894V72.9527H35.5419V68.5269Z" fill="#C5E6EE"/>
<path d="M39.6618 68.5269H38.0138V72.9527H39.6618V68.5269Z" fill="#C5E6EE"/>
<path d="M35.5419 76.9373H33.894V81.3631H35.5419V76.9373Z" fill="#C5E6EE"/>
<path d="M39.6618 76.9373H38.0138V81.3631H39.6618V76.9373Z" fill="#C5E6EE"/>
<path d="M42.3869 44.1643H19.6165C18.2353 44.1643 17.1142 43.0461 17.1142 41.6685C17.1142 40.2909 18.2353 39.1726 19.6165 39.1726H42.3869C43.7681 39.1726 44.8892 40.2909 44.8892 41.6685C44.8926 43.0494 43.7715 44.1643 42.3869 44.1643Z" fill="#D9E3E8"/>
<path d="M39.9859 38.2463H26.8396C25.5969 38.2463 24.5872 37.2392 24.5872 35.9997V35.4978C24.5872 34.2583 25.5969 33.2512 26.8396 33.2512H39.9859C41.2286 33.2512 42.2383 34.2583 42.2383 35.4978V35.9997C42.2383 37.2392 41.2286 38.2463 39.9859 38.2463Z" fill="#D9E3E8"/>
<path d="M131.152 25.6524H108.382C107.001 25.6524 105.88 24.5341 105.88 23.1565C105.88 21.7789 107.001 20.6606 108.382 20.6606H131.152C132.533 20.6606 133.655 21.7789 133.655 23.1565C133.655 24.5341 132.533 25.6524 131.152 25.6524Z" fill="#D9E3E8"/>
<path d="M115.335 20.0679H102.692C101.311 20.0679 100.189 18.9496 100.189 17.572C100.189 16.1944 101.311 15.0762 102.692 15.0762H115.335C116.716 15.0762 117.837 16.1944 117.837 17.572C117.841 18.9496 116.719 20.0679 115.335 20.0679Z" fill="#D9E3E8"/>
<path d="M139.449 98.9858H9.20547C7.9425 98.9858 6.89904 99.9222 6.73019 101.135H141.928C141.756 99.9188 140.716 98.9858 139.449 98.9858Z" fill="#D2ECFC"/>
<path d="M109.516 103.048H99.5377C98.9332 103.048 98.4402 103.536 98.4402 104.143C98.4402 104.749 98.9298 105.237 99.5377 105.237H109.516C110.121 105.237 110.614 104.749 110.614 104.143C110.614 103.536 110.121 103.048 109.516 103.048Z" fill="#D9E3E8"/>
<path d="M96.6268 103.048H94.9147C94.3102 103.048 93.8172 103.536 93.8172 104.143C93.8172 104.749 94.3069 105.237 94.9147 105.237H96.6268C97.2313 105.237 97.7243 104.749 97.7243 104.143C97.7243 103.536 97.2346 103.048 96.6268 103.048Z" fill="#D9E3E8"/>
<path d="M139.456 103.978H9.21222C7.83106 103.978 6.70993 102.859 6.70993 101.482C6.70993 100.104 7.83106 98.9858 9.21222 98.9858H139.456C140.837 98.9858 141.958 100.104 141.958 101.482C141.962 102.859 140.841 103.978 139.456 103.978Z" fill="#D9E3E8"/>
<path d="M152.498 107.871H22.2538C20.8727 107.871 19.7515 106.753 19.7515 105.375C19.7515 103.998 20.8727 102.879 22.2538 102.879H152.498C153.879 102.879 155 103.998 155 105.375C155 106.753 153.879 107.871 152.498 107.871Z" fill="#D9E3E8"/>
<path d="M93.9354 111.9H2.50229C1.12113 111.9 0 110.781 0 109.404C0 108.026 1.12113 106.908 2.50229 106.908H93.932C95.3132 106.908 96.4343 108.026 96.4343 109.404C96.4377 110.781 95.3166 111.9 93.9354 111.9Z" fill="#D9E3E8"/>
<path d="M121.285 115.618H48.5126C47.1315 115.618 46.0103 114.5 46.0103 113.122C46.0103 111.745 47.1315 110.626 48.5126 110.626H121.282C122.663 110.626 123.784 111.745 123.784 113.122C123.787 114.5 122.666 115.618 121.285 115.618Z" fill="#D9E3E8"/>
<path d="M94.7695 119.916H71.999C70.6179 119.916 69.4967 118.798 69.4967 117.42C69.4967 116.043 70.6179 114.924 71.999 114.924H94.7695C96.1507 114.924 97.2718 116.043 97.2718 117.42C97.2752 118.798 96.154 119.916 94.7695 119.916Z" fill="#D9E3E8"/>
<path d="M71.2325 126.339H48.4586C47.0774 126.339 45.9563 125.221 45.9563 123.844C45.9563 122.466 47.0774 121.348 48.4586 121.348H71.2291C72.6102 121.348 73.7314 122.466 73.7314 123.844C73.7347 125.221 72.6136 126.339 71.2325 126.339Z" fill="#D9E3E8"/>
<path d="M38.9256 126.339H30.6792C29.298 126.339 28.1769 125.221 28.1769 123.844C28.1769 122.466 29.298 121.348 30.6792 121.348H38.9256C40.3068 121.348 41.4279 122.466 41.4279 123.844C41.4279 125.221 40.3068 126.339 38.9256 126.339Z" fill="#D9E3E8"/>
<path d="M140.027 115.608H131.277C130.035 115.608 129.025 114.601 129.025 113.362V112.86C129.025 111.62 130.035 110.613 131.277 110.613H140.027C141.27 110.613 142.279 111.62 142.279 112.86V113.362C142.279 114.601 141.27 115.608 140.027 115.608Z" fill="#D9E3E8"/>
<path d="M116.976 129H94.2056C92.8244 129 91.7033 127.882 91.7033 126.504C91.7033 125.127 92.8244 124.008 94.2056 124.008H116.976C118.357 124.008 119.478 125.127 119.478 126.504C119.478 127.882 118.357 129 116.976 129Z" fill="#D9E3E8"/>
<path d="M35.8763 107.103H25.9009C25.2964 107.103 24.8034 107.592 24.8034 108.198C24.8034 108.801 25.293 109.293 25.9009 109.293H35.8796C36.4841 109.293 36.9771 108.804 36.9771 108.198C36.9737 107.592 36.4841 107.103 35.8763 107.103Z" fill="#D9E3E8"/>
<path d="M41.7048 105.348H35.0455C34.4411 105.348 33.948 105.837 33.948 106.443C33.948 107.046 34.4377 107.538 35.0455 107.538H41.7048C42.3093 107.538 42.8023 107.049 42.8023 106.443C42.8023 105.84 42.3093 105.348 41.7048 105.348Z" fill="#D9E3E8"/>
<path d="M61.48 108.016H51.5012C50.8967 108.016 50.4037 108.505 50.4037 109.111C50.4037 109.714 50.8934 110.205 51.5012 110.205H61.48C62.0844 110.205 62.5774 109.717 62.5774 109.111C62.5774 108.505 62.0844 108.016 61.48 108.016Z" fill="#D9E3E8"/>
<path d="M92.6927 111.667H84.5645C83.96 111.667 83.467 112.156 83.467 112.762C83.467 113.368 83.9566 113.857 84.5645 113.857H92.6927C93.2972 113.857 93.7902 113.368 93.7902 112.762C93.7902 112.156 93.2972 111.667 92.6927 111.667Z" fill="#D9E3E8"/>
<path d="M86.7156 109.912H76.7368C76.1324 109.912 75.6393 110.401 75.6393 111.007C75.6393 111.61 76.129 112.102 76.7368 112.102H86.7156C87.32 112.102 87.8131 111.613 87.8131 111.007C87.8131 110.401 87.3234 109.912 86.7156 109.912Z" fill="#D9E3E8"/>
<path d="M67.8657 108.016H64.5158C63.9113 108.016 63.4183 108.505 63.4183 109.111C63.4183 109.714 63.908 110.205 64.5158 110.205H67.8657C68.4702 110.205 68.9632 109.717 68.9632 109.111C68.9632 108.505 68.4702 108.016 67.8657 108.016Z" fill="#D9E3E8"/>
<path d="M101.577 104.85H111.556C112.161 104.85 112.654 105.338 112.654 105.945C112.654 106.548 112.164 107.039 111.556 107.039H101.577C100.973 107.039 100.48 106.551 100.48 105.945C100.48 105.338 100.973 104.85 101.577 104.85Z" fill="#D9E3E8"/>
<path d="M95.1916 104.85H98.5415C99.146 104.85 99.639 105.338 99.639 105.945C99.639 106.548 99.1493 107.039 98.5415 107.039H95.1916C94.5872 107.039 94.0941 106.551 94.0941 105.945C94.0975 105.338 94.5872 104.85 95.1916 104.85Z" fill="#D9E3E8"/>
<path d="M57.1001 103.415H60.45C61.0545 103.415 61.5475 103.903 61.5475 104.51C61.5475 105.116 61.0578 105.604 60.45 105.604H57.1001C56.4956 105.604 56.0026 105.116 56.0026 104.51C56.0026 103.903 56.4956 103.415 57.1001 103.415Z" fill="#D9E3E8"/>
<path d="M147.719 99.7369H4.42713C3.81929 99.7369 3.32626 99.2451 3.32626 98.6388C3.32626 98.0325 3.81929 97.5408 4.42713 97.5408H147.719C148.327 97.5408 148.82 98.0325 148.82 98.6388C148.817 99.2451 148.324 99.7369 147.719 99.7369Z" fill="url(#paint17_linear)"/>
<path d="M75.8926 97.5543C71.4013 97.5543 10.5089 97.5543 4.68378 97.5543C10.0125 94.7823 22.0411 90.9155 40.2865 90.9155C58.5319 90.9155 71.2291 94.3814 75.8926 97.5543Z" fill="#489348"/>
<path d="M147 97.5543C142.509 97.5543 81.6165 97.5543 75.7913 97.5543C81.12 94.7823 93.1486 90.9155 111.394 90.9155C129.639 90.9155 142.337 94.3814 147 97.5543Z" fill="#489348"/>
<path d="M106.008 97.5542C103.158 97.5542 64.4989 97.5542 60.8012 97.5542C64.1849 95.796 71.8201 93.3406 83.4028 93.3406C94.989 93.3406 103.05 95.54 106.008 97.5542Z" fill="url(#paint18_linear)"/>
<path d="M39.1721 72.3495C39.1721 72.9188 38.7095 73.3802 38.1388 73.3802C37.5681 73.3802 37.1054 72.9188 37.1054 72.3495C37.1054 71.7803 37.5681 71.3188 38.1388 71.3188C38.7095 71.3188 39.1721 71.7803 39.1721 72.3495Z" fill="white"/>
<path d="M38.8378 68.237C38.8378 69.9279 38.1354 71.2987 38.1354 71.2987C38.1354 71.2987 37.433 69.9279 37.433 68.237C37.433 66.5462 38.1354 65.1753 38.1354 65.1753C38.1354 65.1753 38.8378 66.5462 38.8378 68.237Z" fill="white"/>
<path d="M35.9776 75.9468C34.8564 77.2166 33.4246 77.7825 33.4246 77.7825C33.4246 77.7825 33.8062 76.2904 34.9273 75.0239C36.0485 73.7541 37.4803 73.1882 37.4803 73.1882C37.4803 73.1882 37.0953 74.677 35.9776 75.9468Z" fill="white"/>
<path d="M41.975 74.0709C40.3473 73.6027 39.2228 72.5485 39.2228 72.5485C39.2228 72.5485 40.7356 72.2554 42.3667 72.727C43.9943 73.1952 45.1188 74.2494 45.1188 74.2494C45.1188 74.2494 43.6026 74.5391 41.975 74.0709Z" fill="white"/>
<path d="M37.6458 91.3566C37.6458 91.3566 37.5985 91.4778 38.3313 91.4778C39.0641 91.4778 39.0506 91.3566 39.0506 91.3566L38.2097 72.929L37.6458 91.3566Z" fill="white"/>
<path d="M121.427 67.4354C121.427 68.1529 120.846 68.7322 120.127 68.7322C119.407 68.7322 118.827 68.1529 118.827 67.4354C118.827 66.718 119.407 66.1387 120.127 66.1387C120.843 66.1387 121.427 66.718 121.427 67.4354Z" fill="white"/>
<path d="M121.008 62.2618C121.008 64.3872 120.127 66.1083 120.127 66.1083C120.127 66.1083 119.245 64.3872 119.245 62.2618C119.245 60.1365 120.127 58.4153 120.127 58.4153C120.127 58.4153 121.008 60.1365 121.008 62.2618Z" fill="white"/>
<path d="M117.408 71.9522C116 73.5454 114.197 74.2594 114.197 74.2594C114.197 74.2594 114.676 72.3867 116.085 70.7902C117.493 69.197 119.296 68.4829 119.296 68.4829C119.296 68.4829 118.816 70.359 117.408 71.9522Z" fill="white"/>
<path d="M124.949 69.5945C122.903 69.005 121.488 67.6813 121.488 67.6813C121.488 67.6813 123.392 67.3142 125.439 67.9036C127.485 68.4931 128.9 69.8168 128.9 69.8168C128.9 69.8168 126.995 70.1873 124.949 69.5945Z" fill="white"/>
<path d="M119.509 91.323C119.509 91.323 119.451 91.4746 120.37 91.4746C121.288 91.4746 121.271 91.323 121.271 91.323L120.211 68.1597L119.509 91.323Z" fill="white"/>
<path d="M43.4676 80.3525C43.4676 80.6826 43.2008 80.9487 42.8698 80.9487C42.5389 80.9487 42.2721 80.6826 42.2721 80.3525C42.2721 80.0224 42.5389 79.7563 42.8698 79.7563C43.2008 79.7563 43.4676 80.0258 43.4676 80.3525Z" fill="white"/>
<path d="M43.2751 77.9712C43.2751 78.9513 42.8698 79.7429 42.8698 79.7429C42.8698 79.7429 42.4646 78.9513 42.4646 77.9712C42.4646 76.9944 42.8698 76.1995 42.8698 76.1995C42.8698 76.1995 43.2751 76.9944 43.2751 77.9712Z" fill="white"/>
<path d="M41.6204 82.4339C40.972 83.1682 40.1413 83.4949 40.1413 83.4949C40.1413 83.4949 40.3608 82.6327 41.0091 81.8984C41.6575 81.1641 42.4882 80.8374 42.4882 80.8374C42.4882 80.8374 42.2654 81.6997 41.6204 82.4339Z" fill="white"/>
<path d="M45.0918 81.3494C44.1497 81.0766 43.4979 80.4669 43.4979 80.4669C43.4979 80.4669 44.3759 80.2985 45.3181 80.5714C46.2602 80.8442 46.912 81.4538 46.912 81.4538C46.912 81.4538 46.034 81.6223 45.0918 81.3494Z" fill="white"/>
<path d="M42.5862 91.3564C42.5862 91.3564 42.5592 91.4271 42.9847 91.4271C43.4101 91.4271 43.4 91.3564 43.4 91.3564L42.9137 80.6892L42.5862 91.3564Z" fill="white"/>
<path d="M125.378 79.6315C125.378 80.0189 125.064 80.3288 124.679 80.3288C124.294 80.3288 123.98 80.0155 123.98 79.6315C123.98 79.2442 124.294 78.9343 124.679 78.9343C125.064 78.9343 125.378 79.2442 125.378 79.6315Z" fill="white"/>
<path d="M125.152 76.8461C125.152 77.9913 124.675 78.9176 124.675 78.9176C124.675 78.9176 124.199 77.9913 124.199 76.8461C124.199 75.7009 124.675 74.7747 124.675 74.7747C124.675 74.7747 125.152 75.7009 125.152 76.8461Z" fill="white"/>
<path d="M123.213 82.0635C122.457 82.9224 121.484 83.3064 121.484 83.3064C121.484 83.3064 121.741 82.2959 122.501 81.4404C123.257 80.5815 124.23 80.1975 124.23 80.1975C124.23 80.1975 123.973 81.2046 123.213 82.0635Z" fill="white"/>
<path d="M127.276 80.7938C126.175 80.4772 125.412 79.7631 125.412 79.7631C125.412 79.7631 126.438 79.5644 127.539 79.8844C128.64 80.201 129.403 80.9151 129.403 80.9151C129.403 80.9151 128.376 81.1104 127.276 80.7938Z" fill="white"/>
<path d="M124.344 92.4948C124.344 92.4948 124.314 92.5756 124.81 92.5756C125.307 92.5756 125.297 92.4948 125.297 92.4948L124.726 80.0222L124.344 92.4948Z" fill="white"/>
<path d="M21.2644 61.1739C18.1779 69.3857 17.7828 78.6248 18.1272 83.1685C18.4886 87.9851 20.6025 91.3567 22.7739 91.0333C24.7021 90.747 26.8768 88.1434 26.6978 79.7969C26.5155 71.4504 24.8878 64.0639 23.8004 61.1739C22.7671 58.4255 22.2302 58.604 21.2644 61.1739Z" fill="#70B773"/>
<path d="M22.4868 81.626L21.9127 97.5544H22.8515L22.4868 81.626Z" fill="#A35E1A"/>
<path d="M20.8321 87.9077L22.3281 90.215L22.4328 89.2786L20.8321 87.9077Z" fill="#A35E1A"/>
<path d="M22.4328 87.1062V87.8203L24.1314 85.6545L22.4328 87.1062Z" fill="#A35E1A"/>
<path d="M135.005 61.1739C131.919 69.3857 131.524 78.6248 131.868 83.1685C132.23 87.9851 134.343 91.3567 136.515 91.0333C138.443 90.747 140.618 88.1434 140.439 79.7969C140.256 71.4504 138.629 64.0639 137.541 61.1739C136.505 58.4255 135.971 58.604 135.005 61.1739Z" fill="#70B773"/>
<path d="M136.224 81.626L135.65 97.5544H136.589L136.224 81.626Z" fill="#A35E1A"/>
<path d="M134.57 87.9077L136.066 90.215L136.17 89.2786L134.57 87.9077Z" fill="#A35E1A"/>
<path d="M136.17 87.1062V87.8203L137.869 85.6545L136.17 87.1062Z" fill="#A35E1A"/>
<path d="M55.361 80.831C54.0102 84.4283 53.838 88.4736 53.9866 90.4642C54.1453 92.5727 55.0706 94.0514 56.0229 93.9099C56.8671 93.7853 57.8194 92.6434 57.7417 88.9889C57.6641 85.331 56.9481 82.0975 56.472 80.831C56.0195 79.6286 55.7865 79.7061 55.361 80.831Z" fill="#70B773"/>
<path d="M55.8979 89.7905L55.6447 96.7661H56.0566L55.8979 89.7905Z" fill="#A35E1A"/>
<path d="M55.1719 92.5391L55.827 93.5495L55.8743 93.142L55.1719 92.5391Z" fill="#A35E1A"/>
<path d="M55.8743 92.1889V92.5021L56.6172 91.5522L55.8743 92.1889Z" fill="#A35E1A"/>
<path d="M50.0795 70.5409C47.9588 76.1794 47.692 82.5218 47.9251 85.6407C48.1749 88.9483 49.6236 91.2623 51.1162 91.04C52.44 90.8447 53.9326 89.0561 53.811 83.3268C53.6861 77.5974 52.5683 72.5248 51.822 70.5409C51.1129 68.6547 50.7448 68.7793 50.0795 70.5409Z" fill="#70B773"/>
<path d="M50.917 84.583L50.5253 95.5163H51.1703L50.917 84.583Z" fill="#A35E1A"/>
<path d="M49.7823 88.8943L50.8123 90.4773L50.8832 89.834L49.7823 88.8943Z" fill="#A35E1A"/>
<path d="M50.8832 88.3454V88.8338L52.0482 87.3484L50.8832 88.3454Z" fill="#A35E1A"/>
<path d="M9.09402 70.5307C3.4377 76.1691 2.71842 82.5149 3.34315 85.6373C4.00502 88.9449 7.87496 91.2622 11.8563 91.0399C15.3886 90.8446 19.3733 89.056 19.0424 83.3199C18.7115 77.5872 15.7263 72.5146 13.7373 70.5273C11.8428 68.6411 10.8635 68.7658 9.09402 70.5307Z" fill="#70B773"/>
<path d="M11.2282 81.6257L10.6541 97.5541H11.5929L11.2282 81.6257Z" fill="#A35E1A"/>
<path d="M8.15186 86.1021L11.0729 90.2147L11.1776 89.2783L8.15186 86.1021Z" fill="#A35E1A"/>
<path d="M11.1776 87.1058V87.8199L14.1526 85.4756L11.1776 87.1058Z" fill="#A35E1A"/>
<path d="M103.688 70.5307C98.0316 76.1725 97.3123 82.5183 97.9404 85.6373C98.6023 88.9449 102.472 91.2622 106.454 91.0399C109.986 90.8446 113.971 89.056 113.64 83.3199C113.309 77.5872 110.324 72.5146 108.335 70.5273C106.437 68.6411 105.457 68.7658 103.688 70.5307Z" fill="#70B773"/>
<path d="M105.822 81.6257L105.248 97.5541H106.187L105.822 81.6257Z" fill="#A35E1A"/>
<path d="M102.742 86.1021L105.667 90.2147L105.771 89.2783L102.742 86.1021Z" fill="#A35E1A"/>
<path d="M105.771 87.1058V87.8199L108.747 85.4756L105.771 87.1058Z" fill="#A35E1A"/>
<path d="M15.7972 83.576C12.3223 87.0419 11.8833 90.939 12.2649 92.8555C12.6735 94.8865 15.0475 96.3113 17.4924 96.1732C19.6604 96.0519 22.1086 94.9539 21.906 91.4307C21.7034 87.9076 19.8697 84.7919 18.6473 83.5726C17.4856 82.4173 16.8812 82.4948 15.7972 83.576Z" fill="url(#paint19_linear)"/>
<path d="M17.1074 90.3933L16.7562 97.5542H17.3303L17.1074 90.3933Z" fill="#A35E1A"/>
<path d="M15.2163 93.1418L17.0129 95.668L17.077 95.0921L15.2163 93.1418Z" fill="#A35E1A"/>
<path d="M17.077 93.7582V94.196L18.9039 92.7578L17.077 93.7582Z" fill="#A35E1A"/>
<path d="M112.367 83.576C108.892 87.0419 108.453 90.939 108.834 92.8555C109.243 94.8865 111.617 96.3113 114.062 96.1732C116.23 96.0519 118.678 94.9539 118.475 91.4307C118.273 87.9076 116.439 84.7919 115.217 83.5726C114.055 82.4173 113.451 82.4948 112.367 83.576Z" fill="url(#paint20_linear)"/>
<path d="M113.677 90.3933L113.326 97.5542H113.903L113.677 90.3933Z" fill="#A35E1A"/>
<path d="M111.786 93.1418L113.582 95.668L113.646 95.0921L111.786 93.1418Z" fill="#A35E1A"/>
<path d="M113.646 93.7582V94.196L115.473 92.7578L113.646 93.7582Z" fill="#A35E1A"/>
<path d="M52.0246 88.9485C49.887 91.0806 49.6135 93.4821 49.8499 94.661C50.0998 95.9106 51.5654 96.7863 53.0681 96.7055C54.4053 96.6314 55.9114 95.9544 55.7865 93.7852C55.6616 91.6161 54.5337 89.6996 53.7806 88.9485C53.0647 88.2344 52.6933 88.2782 52.0246 88.9485Z" fill="url(#paint21_linear)"/>
<path d="M52.8317 93.1453L52.6156 97.5543H52.9702L52.8317 93.1453Z" fill="#A35E1A"/>
<path d="M51.6667 94.8362L52.7743 96.3923L52.8114 96.0386L51.6667 94.8362Z" fill="#A35E1A"/>
<path d="M52.8114 95.2167V95.4862L53.9359 94.6003L52.8114 95.2167Z" fill="#A35E1A"/>
<path d="M115.028 42.551C117.314 42.551 119.168 44.4002 119.168 46.6805H110.884C110.887 44.4002 112.741 42.551 115.028 42.551Z" fill="white"/>
<path d="M126.752 39.1187C130.94 39.1187 134.337 42.5037 134.337 46.6837H119.168C119.171 42.5037 122.565 39.1187 126.752 39.1187Z" fill="white"/>
<path d="M95.0565 5.01538C96.7889 5.01538 98.1937 6.41657 98.1937 8.14447H91.9194C91.9194 6.4132 93.3242 5.01538 95.0565 5.01538Z" fill="white"/>
<path d="M103.934 2.41504C107.105 2.41504 109.675 4.97827 109.675 8.14104H98.1903C98.1903 4.97827 100.764 2.41504 103.934 2.41504Z" fill="white"/>
<path d="M49.887 12.6174C47.9588 12.6174 46.3987 14.1769 46.3987 16.0968H53.3787C53.3787 14.1769 51.8152 12.6174 49.887 12.6174Z" fill="white"/>
<path d="M40.0062 9.72412C36.4773 9.72412 33.6171 12.577 33.6171 16.0968H46.3987C46.3987 12.5804 43.5384 9.72412 40.0062 9.72412Z" fill="white"/>
<path d="M93.4356 23.7966C91.3284 23.7966 89.6197 25.501 89.6197 27.6027H97.2482C97.2482 25.501 95.5428 23.7966 93.4356 23.7966Z" fill="white"/>
<path d="M82.6363 20.6338C78.7799 20.6338 75.6495 23.7528 75.6495 27.6027H89.6197C89.6197 23.7528 86.4927 20.6338 82.6363 20.6338Z" fill="white"/>
<path d="M46.5473 45.1882C44.7136 45.1882 43.2278 46.6703 43.2278 48.4992H49.8634C49.8634 46.6703 48.3776 45.1882 46.5473 45.1882Z" fill="white"/>
<path d="M37.1527 42.4363C33.7961 42.4363 31.0777 45.1511 31.0777 48.4957H43.2312C43.2278 45.1511 40.506 42.4363 37.1527 42.4363Z" fill="white"/>
</g>
<defs>
<linearGradient id="paint0_linear" x1="31.5007" y1="80.0007" x2="41.6424" y2="80.0007" gradientUnits="userSpaceOnUse">
<stop stop-color="#A3CCE3"/>
<stop offset="1" stop-color="#A3CCE3"/>
</linearGradient>
<linearGradient id="paint1_linear" x1="39.6141" y1="90.4776" x2="49.6109" y2="90.4776" gradientUnits="userSpaceOnUse">
<stop stop-color="#A3CCE3"/>
<stop offset="1" stop-color="#A3CCE3"/>
</linearGradient>
<linearGradient id="paint2_linear" x1="49.6108" y1="84.0471" x2="59.0281" y2="84.0471" gradientUnits="userSpaceOnUse">
<stop stop-color="#A3CCE3"/>
<stop offset="1" stop-color="#A3CCE3"/>
</linearGradient>
<linearGradient id="paint3_linear" x1="52.38" y1="75.1581" x2="56.2589" y2="75.1581" gradientUnits="userSpaceOnUse">
<stop stop-color="#A3CCE3"/>
<stop offset="1" stop-color="#A3CCE3"/>
</linearGradient>
<linearGradient id="paint4_linear" x1="53.9463" y1="65.983" x2="54.6925" y2="65.983" gradientUnits="userSpaceOnUse">
<stop stop-color="#A3CCE3"/>
<stop offset="1" stop-color="#A3CCE3"/>
</linearGradient>
<linearGradient id="paint5_linear" x1="58.0139" y1="89.3216" x2="62.9399" y2="89.3216" gradientUnits="userSpaceOnUse">
<stop stop-color="#A3CCE3"/>
<stop offset="1" stop-color="#A3CCE3"/>
</linearGradient>
<linearGradient id="paint6_linear" x1="61.7808" y1="87.1539" x2="67.2863" y2="87.1539" gradientUnits="userSpaceOnUse">
<stop stop-color="#A3CCE3"/>
<stop offset="1" stop-color="#A3CCE3"/>
</linearGradient>
<linearGradient id="paint7_linear" x1="66.417" y1="75.7641" x2="77.7177" y2="75.7641" gradientUnits="userSpaceOnUse">
<stop stop-color="#A3CCE3"/>
<stop offset="1" stop-color="#A3CCE3"/>
</linearGradient>
<linearGradient id="paint8_linear" x1="76.7036" y1="84.5529" x2="88.7287" y2="84.5529" gradientUnits="userSpaceOnUse">
<stop stop-color="#A3CCE3"/>
<stop offset="1" stop-color="#A3CCE3"/>
</linearGradient>
<linearGradient id="paint9_linear" x1="87.5696" y1="92.79" x2="93.0751" y2="92.79" gradientUnits="userSpaceOnUse">
<stop stop-color="#A3CCE3"/>
<stop offset="1" stop-color="#A3CCE3"/>
</linearGradient>
<linearGradient id="paint10_linear" x1="92.2058" y1="87.3708" x2="99.1601" y2="87.3708" gradientUnits="userSpaceOnUse">
<stop stop-color="#A3CCE3"/>
<stop offset="1" stop-color="#A3CCE3"/>
</linearGradient>
<linearGradient id="paint11_linear" x1="99.0153" y1="82.3387" x2="113.793" y2="82.3387" gradientUnits="userSpaceOnUse">
<stop stop-color="#A3CCE3"/>
<stop offset="1" stop-color="#A3CCE3"/>
</linearGradient>
<linearGradient id="paint12_linear" x1="112.344" y1="90.2611" x2="127.702" y2="90.2611" gradientUnits="userSpaceOnUse">
<stop stop-color="#A3CCE3"/>
<stop offset="1" stop-color="#A3CCE3"/>
</linearGradient>
<linearGradient id="paint13_linear" x1="126.253" y1="81.5904" x2="136.105" y2="81.5904" gradientUnits="userSpaceOnUse">
<stop stop-color="#A3CCE3"/>
<stop offset="1" stop-color="#A3CCE3"/>
</linearGradient>
<linearGradient id="paint14_linear" x1="135.091" y1="88.31" x2="143.349" y2="88.31" gradientUnits="userSpaceOnUse">
<stop stop-color="#A3CCE3"/>
<stop offset="1" stop-color="#A3CCE3"/>
</linearGradient>
<linearGradient id="paint15_linear" x1="20.0344" y1="88.579" x2="33.1581" y2="88.579" gradientUnits="userSpaceOnUse">
<stop stop-color="#A3CCE3"/>
<stop offset="1" stop-color="#A3CCE3"/>
</linearGradient>
<linearGradient id="paint16_linear" x1="11.396" y1="90.65" x2="21.0311" y2="90.65" gradientUnits="userSpaceOnUse">
<stop stop-color="#A3CCE3"/>
<stop offset="1" stop-color="#A3CCE3"/>
</linearGradient>
<linearGradient id="paint17_linear" x1="3.32724" y1="98.6408" x2="148.818" y2="98.6408" gradientUnits="userSpaceOnUse">
<stop stop-color="#70B62C"/>
<stop offset="1" stop-color="#B4CC0E"/>
</linearGradient>
<linearGradient id="paint18_linear" x1="60.8029" y1="95.448" x2="106.009" y2="95.448" gradientUnits="userSpaceOnUse">
<stop stop-color="#70B62C"/>
<stop offset="1" stop-color="#B4CC0E"/>
</linearGradient>
<linearGradient id="paint19_linear" x1="15.8512" y1="91.5734" x2="22.6713" y2="85.0107" gradientUnits="userSpaceOnUse">
<stop stop-color="#B4CC0E"/>
<stop offset="1" stop-color="#E2DE00"/>
</linearGradient>
<linearGradient id="paint20_linear" x1="112.421" y1="91.5734" x2="119.242" y2="85.0107" gradientUnits="userSpaceOnUse">
<stop stop-color="#B4CC0E"/>
<stop offset="1" stop-color="#E2DE00"/>
</linearGradient>
<linearGradient id="paint21_linear" x1="52.0587" y1="93.871" x2="56.2583" y2="89.8298" gradientUnits="userSpaceOnUse">
<stop stop-color="#B4CC0E"/>
<stop offset="1" stop-color="#E2DE00"/>
</linearGradient>
<clipPath id="clip0">
<rect width="155" height="129" fill="white"/>
</clipPath>
</defs>
</svg>
