<svg width="170" height="129" viewBox="0 0 170 129" fill="none" xmlns="http://www.w3.org/2000/svg">
<path d="M122.505 98.4721C145.027 75.9454 145.027 39.4223 122.505 16.8956C99.9821 -5.63118 63.4659 -5.63118 40.9434 16.8956C18.4208 39.4223 18.4208 75.9454 40.9434 98.4721C63.4659 120.999 99.9821 120.999 122.505 98.4721Z" fill="#E9F2F4"/>
<path d="M125.1 15.6729H102.873C101.525 15.6729 100.431 14.5784 100.431 13.23C100.431 11.8816 101.525 10.7871 102.873 10.7871H125.1C126.448 10.7871 127.542 11.8816 127.542 13.23C127.545 14.5784 126.451 15.6729 125.1 15.6729Z" fill="#D9E3E8"/>
<path d="M107.821 11.196H94.989C93.7761 11.196 92.7905 10.2103 92.7905 8.99706V8.50584C92.7905 7.29262 93.7761 6.30688 94.989 6.30688H107.821C109.034 6.30688 110.02 7.29262 110.02 8.50584V8.99706C110.02 10.2136 109.034 11.196 107.821 11.196Z" fill="#D9E3E8"/>
<path d="M53.1441 25.1214H30.9181C29.5699 25.1214 28.4756 24.0269 28.4756 22.6785C28.4756 21.3301 29.5699 20.2356 30.9181 20.2356H53.1441C54.4923 20.2356 55.5866 21.3301 55.5866 22.6785C55.5899 24.0269 54.4956 25.1214 53.1441 25.1214Z" fill="#D9E3E8"/>
<path d="M49.4854 20.5621H37.1445C35.7964 20.5621 34.7021 19.4676 34.7021 18.1192C34.7021 16.7708 35.7964 15.6763 37.1445 15.6763H49.4854C50.8335 15.6763 51.9279 16.7708 51.9279 18.1192C51.9279 19.4676 50.8335 20.5621 49.4854 20.5621Z" fill="#D9E3E8"/>
<path d="M99.0005 85.7989H9.75666C8.40853 85.7989 7.3142 84.7044 7.3142 83.356C7.3142 82.0076 8.40853 80.9131 9.75666 80.9131H99.0005C100.349 80.9131 101.443 82.0076 101.443 83.356C101.443 84.7044 100.349 85.7989 99.0005 85.7989Z" fill="#D9E3E8"/>
<path d="M161.453 87.2562H90.4206C89.0724 87.2562 87.9781 86.1617 87.9781 84.8133C87.9781 83.4649 89.0724 82.3704 90.4206 82.3704H161.45C162.798 82.3704 163.892 83.4649 163.892 84.8133C163.895 86.1617 162.801 87.2562 161.453 87.2562Z" fill="#D9E3E8"/>
<path d="M115.063 105.715H105.323C104.733 105.715 104.251 106.193 104.251 106.786C104.251 107.38 104.729 107.858 105.323 107.858H115.063C115.653 107.858 116.134 107.38 116.134 106.786C116.134 106.193 115.653 105.715 115.063 105.715Z" fill="#D9E3E8"/>
<path d="M102.481 105.715H100.81C100.22 105.715 99.7388 106.193 99.7388 106.786C99.7388 107.38 100.217 107.858 100.81 107.858H102.481C103.071 107.858 103.552 107.38 103.552 106.786C103.552 106.193 103.075 105.715 102.481 105.715Z" fill="#D9E3E8"/>
<path d="M140.944 106.625H13.8143C12.4661 106.625 11.3718 105.53 11.3718 104.182C11.3718 102.834 12.4661 101.739 13.8143 101.739H140.944C142.292 101.739 143.387 102.834 143.387 104.182C143.39 105.53 142.296 106.625 140.944 106.625Z" fill="#D9E3E8"/>
<path d="M167.558 110.436H40.4275C39.0794 110.436 37.9851 109.341 37.9851 107.993C37.9851 106.645 39.0794 105.55 40.4275 105.55H167.558C168.906 105.55 170 106.645 170 107.993C170 109.341 168.906 110.436 167.558 110.436Z" fill="#D9E3E8"/>
<path d="M91.6896 114.379H2.44246C1.09433 114.379 0 113.284 0 111.936C0 110.587 1.09433 109.493 2.44246 109.493H91.6863C93.0344 109.493 94.1288 110.587 94.1288 111.936C94.132 113.284 93.0377 114.379 91.6896 114.379Z" fill="#D9E3E8"/>
<path d="M126.55 118.015H55.5174C54.1693 118.015 53.0749 116.921 53.0749 115.572C53.0749 114.224 54.1693 113.129 55.5174 113.129H126.547C127.895 113.129 128.989 114.224 128.989 115.572C128.992 116.921 127.898 118.015 126.55 118.015Z" fill="#D9E3E8"/>
<path d="M100.668 122.225H78.4423C77.0941 122.225 75.9998 121.131 75.9998 119.782C75.9998 118.434 77.0941 117.339 78.4423 117.339H100.668C102.017 117.339 103.111 118.434 103.111 119.782C103.114 121.131 102.02 122.225 100.668 122.225Z" fill="#D9E3E8"/>
<path d="M113.411 129H91.1853C89.8371 129 88.7428 127.906 88.7428 126.557C88.7428 125.209 89.8371 124.114 91.1853 124.114H113.411C114.759 124.114 115.854 125.209 115.854 126.557C115.854 127.906 114.759 129 113.411 129Z" fill="#D9E3E8"/>
<path d="M44.1555 122.225H36.1063C34.7581 122.225 33.6638 121.131 33.6638 119.782C33.6638 118.434 34.7581 117.339 36.1063 117.339H44.1555C45.5036 117.339 46.598 118.434 46.598 119.782C46.598 121.131 45.5036 122.225 44.1555 122.225Z" fill="#D9E3E8"/>
<path d="M65.6498 126.168H57.6006C56.2524 126.168 55.1581 125.074 55.1581 123.725C55.1581 122.377 56.2524 121.282 57.6006 121.282H65.6498C66.998 121.282 68.0923 122.377 68.0923 123.725C68.0956 125.074 67.0013 126.168 65.6498 126.168Z" fill="#D9E3E8"/>
<path d="M144.844 118.009H136.303C135.09 118.009 134.105 117.023 134.105 115.81V115.318C134.105 114.105 135.09 113.119 136.303 113.119H144.844C146.057 113.119 147.042 114.105 147.042 115.318V115.81C147.042 117.023 146.057 118.009 144.844 118.009Z" fill="#D9E3E8"/>
<path d="M43.1831 109.684H33.4429C32.8529 109.684 32.3717 110.162 32.3717 110.756C32.3717 111.346 32.8496 111.827 33.4429 111.827H43.1831C43.7731 111.827 44.2544 111.349 44.2544 110.756C44.2544 110.162 43.7764 109.684 43.1831 109.684Z" fill="#D9E3E8"/>
<path d="M48.8723 107.967H42.3723C41.7823 107.967 41.301 108.445 41.301 109.038C41.301 109.628 41.779 110.11 42.3723 110.11H48.8723C49.4623 110.11 49.9436 109.632 49.9436 109.038C49.9436 108.445 49.4623 107.967 48.8723 107.967Z" fill="#D9E3E8"/>
<path d="M68.1747 110.578H58.4345C57.8445 110.578 57.3633 111.056 57.3633 111.649C57.3633 112.239 57.8412 112.721 58.4345 112.721H68.1747C68.7647 112.721 69.2459 112.243 69.2459 111.649C69.2459 111.056 68.7647 110.578 68.1747 110.578Z" fill="#D9E3E8"/>
<path d="M98.6412 114.151H90.7073C90.1173 114.151 89.6361 114.629 89.6361 115.223C89.6361 115.816 90.114 116.294 90.7073 116.294H98.6412C99.2312 116.294 99.7125 115.816 99.7125 115.223C99.7125 114.629 99.2312 114.151 98.6412 114.151Z" fill="#D9E3E8"/>
<path d="M92.807 112.434H83.0668C82.4768 112.434 81.9955 112.912 81.9955 113.505C81.9955 114.095 82.4735 114.577 83.0668 114.577H92.807C93.397 114.577 93.8782 114.099 93.8782 113.505C93.8782 112.912 93.4003 112.434 92.807 112.434Z" fill="#D9E3E8"/>
<path d="M74.4078 110.578H71.138C70.5479 110.578 70.0667 111.056 70.0667 111.649C70.0667 112.239 70.5446 112.721 71.138 112.721H74.4078C74.9978 112.721 75.479 112.243 75.479 111.649C75.479 111.056 74.9978 110.578 74.4078 110.578Z" fill="#D9E3E8"/>
<path d="M107.313 107.479H117.054C117.644 107.479 118.125 107.957 118.125 108.55C118.125 109.14 117.647 109.622 117.054 109.622H107.313C106.723 109.622 106.242 109.144 106.242 108.55C106.242 107.957 106.723 107.479 107.313 107.479Z" fill="#D9E3E8"/>
<path d="M101.08 107.479H104.35C104.94 107.479 105.421 107.957 105.421 108.55C105.421 109.14 104.943 109.622 104.35 109.622H101.08C100.49 109.622 100.009 109.144 100.009 108.55C100.012 107.957 100.49 107.479 101.08 107.479Z" fill="#D9E3E8"/>
<path d="M63.8996 106.074H67.1694C67.7594 106.074 68.2406 106.552 68.2406 107.146C68.2406 107.739 67.7627 108.217 67.1694 108.217H63.8996C63.3095 108.217 62.8283 107.739 62.8283 107.146C62.8283 106.552 63.3095 106.074 63.8996 106.074Z" fill="#D9E3E8"/>
<path d="M158.45 109.361V105.036H155.49L141.696 86.755C140.915 85.7198 137.951 84.8989 135.057 84.8989H31.607C28.7129 84.8989 25.7497 85.7198 24.9685 86.755L11.174 105.036H8.20747V109.562H8.21406C8.31294 110.772 10.2379 111.656 13.277 111.656H153.387C156.591 111.652 158.559 110.673 158.45 109.361Z" fill="#3C3C3C"/>
<path d="M24.9655 82.2023L8.60657 103.885C7.28481 105.636 9.3581 107.103 13.2772 107.103H153.388C157.307 107.103 159.38 105.636 158.058 103.885L141.699 82.2023C140.918 81.1671 137.955 80.3462 135.061 80.3462H31.6072C28.7132 80.3462 25.7467 81.1671 24.9655 82.2023Z" fill="#424242"/>
<path d="M143.13 105.764H23.5347L38.1532 81.0945H128.511L143.13 105.764Z" fill="#FAFAFA"/>
<path d="M53.6683 87.9914L51.8982 92.9531H71.1775L72.018 86.854H57.0633C56.592 87.4243 55.2372 87.8826 53.6683 87.9914Z" fill="#EDE8E4"/>
<path d="M72.8124 81.0945H56.1272L54.6472 85.2452C56.0942 85.3474 57.1259 85.7825 57.2281 86.3397H72.0873L72.8124 81.0945Z" fill="#EDE8E4"/>
<path d="M55.8306 86.5936C55.9921 86.109 55.079 85.72 53.7935 85.72C52.508 85.72 51.3082 86.109 51.1203 86.5936C50.9291 87.0815 51.8389 87.4837 53.1508 87.4837C54.4626 87.4837 55.6657 87.0848 55.8306 86.5936Z" fill="#039BE5"/>
<path d="M61.6977 84.4242C61.7867 84.0978 61.1341 83.8374 60.2441 83.8374C59.3541 83.8374 58.5466 84.1011 58.4444 84.4242C58.3422 84.7506 58.9916 85.021 59.898 85.021C60.7979 85.021 61.6087 84.7506 61.6977 84.4242Z" fill="#70B773"/>
<path d="M50.1809 93.5564H30.7698L28.9964 96.5532H49.0602L50.1809 93.5564Z" fill="#EDE8E4"/>
<path d="M73.465 86.3364H94.2276L93.5255 81.0945H74.1012L73.465 86.3364Z" fill="#EDE8E4"/>
<path d="M95.1934 93.5564H51.6807L48.5065 102.458H96.3833L95.1934 93.5564Z" fill="#70B773"/>
<path d="M121.171 81.0945H107.762L111.562 92.9531H127.057L121.171 81.0945Z" fill="#039BE5"/>
<path d="M34.7416 86.854L31.129 92.9531H50.4083L52.2608 87.9914C50.7709 87.8826 49.7458 87.4243 49.6964 86.854H34.7416Z" fill="#EDE8E4"/>
<path d="M54.8384 81.0945H38.1532L35.0449 86.3397H49.904C50.4116 85.7825 51.7598 85.3507 53.2826 85.2452L54.8384 81.0945Z" fill="#EDE8E4"/>
<path d="M94.2969 86.854H73.4024L72.6641 92.9531H95.111L94.2969 86.854Z" fill="#EDE8E4"/>
<path d="M48.2395 103.203L47.3264 105.764H96.825L96.4822 103.203H48.2395Z" fill="#EDE8E4"/>
<path d="M96.6932 93.5564L98.5324 105.764H113.962L110.257 93.5564H96.6932Z" fill="#EDE8E4"/>
<path d="M28.6075 97.2092L23.5347 105.764H45.619L48.8163 97.2092H28.6075Z" fill="#EDE8E4"/>
<path d="M111.757 93.5564L115.669 105.764H133.416L127.357 93.5564H111.757Z" fill="#039BE5"/>
<path d="M135.12 105.764H143.13L140.437 101.218H132.786L135.12 105.764Z" fill="#EDE8E4"/>
<path d="M132.42 100.506H140.011L135.895 93.5564H128.857L132.42 100.506Z" fill="#EDE8E4"/>
<path d="M128.547 92.9531H135.539L128.511 81.0945H122.459L128.547 92.9531Z" fill="#EDE8E4"/>
<path d="M108.065 86.3364L106.473 81.0945H94.8177L95.6054 86.3364H108.065Z" fill="#EDE8E4"/>
<path d="M108.223 86.854H95.6845L96.6009 92.9531H110.072L108.223 86.854Z" fill="#EDE8E4"/>
<path d="M128.188 95.2312H112.294L111.757 93.5564H127.357L128.188 95.2312Z" fill="#0288D1"/>
<path d="M35.1932 89.5244C34.8076 89.5244 34.4285 89.6464 34.3428 89.7948C34.2571 89.9464 34.4977 90.0684 34.8867 90.0684C35.2756 90.0684 35.6547 89.9464 35.7404 89.7948C35.8195 89.6431 35.5756 89.5244 35.1932 89.5244Z" fill="#70B773"/>
<path d="M38.084 89.5244C37.6983 89.5244 37.3225 89.6464 37.2401 89.7948C37.1577 89.9464 37.405 90.0684 37.7939 90.0684C38.1828 90.0684 38.5586 89.9464 38.6377 89.7948C38.7168 89.6431 38.4696 89.5244 38.084 89.5244Z" fill="#70B773"/>
<path d="M40.978 89.5244C40.5923 89.5244 40.2199 89.6464 40.1441 89.7948C40.0683 89.9464 40.3188 90.0684 40.7044 90.0684C41.0901 90.0684 41.4658 89.9464 41.5383 89.7948C41.6142 89.6431 41.3604 89.5244 40.978 89.5244Z" fill="#70B773"/>
<path d="M43.872 89.5244C43.4864 89.5244 43.1205 89.6464 43.048 89.7948C42.9755 89.9464 43.2326 90.0684 43.6182 90.0684C44.0039 90.0684 44.373 89.9464 44.4423 89.7948C44.5115 89.6431 44.2544 89.5244 43.872 89.5244Z" fill="#70B773"/>
<path d="M46.7628 89.5244C46.3771 89.5244 46.0145 89.6464 45.9486 89.7948C45.8827 89.9464 46.1431 90.0684 46.5288 90.0684C46.9144 90.0684 47.2803 89.9464 47.3429 89.7948C47.4088 89.6431 47.1484 89.5244 46.7628 89.5244Z" fill="#70B773"/>
<path d="M49.6568 89.5244C49.2712 89.5244 48.9119 89.6464 48.8525 89.7948C48.7932 89.9464 49.0569 90.0684 49.4426 90.0684C49.8282 90.0684 50.1908 89.9464 50.2501 89.7948C50.3062 89.6431 50.0392 89.5244 49.6568 89.5244Z" fill="#70B773"/>
<path d="M128.547 92.9531H135.539L132.298 87.4871H125.742L128.547 92.9531Z" fill="#70B773"/>
<path d="M30.7895 95.9497L31.841 94.1299H48.5592L47.8505 95.9497H30.7895Z" fill="#DBD1C8"/>
<path d="M84.2699 85.8617L84.2205 81.5166H92.3719L92.8861 85.8617H84.2699Z" fill="#DBD1C8"/>
<path d="M74.1144 92.396L74.6451 87.342H80.6441L80.4793 92.396H74.1144Z" fill="#DBD1C8"/>
<path d="M63.5535 92.396L64.6939 87.342H70.6468L69.8722 92.396H63.5535Z" fill="#DBD1C8"/>
<path d="M100.003 105.036L98.8785 98.2773H110.214L112.159 105.036H100.003Z" fill="#DBD1C8"/>
<path d="M98.5918 96.5531L98.2654 94.585H109.153L109.716 96.5531H98.5918Z" fill="#DBD1C8"/>
<path d="M25.5486 105.036L29.7051 97.8289H47.1188L44.3104 105.036H25.5486Z" fill="#DBD1C8"/>
<path d="M136.326 105.036L134.665 101.894H139.303L141.116 105.036H136.326Z" fill="#DBD1C8"/>
<path d="M133.584 99.8498L130.558 94.1299H134.827L138.123 99.8498H133.584Z" fill="#DBD1C8"/>
<path d="M126.293 86.0629L123.887 81.5166H127.552L130.176 86.0629H126.293Z" fill="#DBD1C8"/>
<path d="M96.8118 85.8617L96.4427 83.6265H105.998L106.641 85.8617H96.8118Z" fill="#DBD1C8"/>
<path d="M97.8996 92.396L97.2568 88.5354H107.412L108.523 92.396H97.8996Z" fill="#DBD1C8"/>
<path d="M32.8398 92.3961H49.2349L49.9139 90.6521H33.8451L32.8398 92.3961Z" fill="#DBD1C8"/>
<path d="M47.2737 87.342H35.7536L34.8241 88.9542H46.5683L47.2737 87.342Z" fill="#DBD1C8"/>
<path d="M59.0542 87.342L54.6505 88.9542L54.2715 90.0652H61.7735L62.4624 87.342H59.0542Z" fill="#DBD1C8"/>
<path d="M45.1444 84.5727L46.6079 81.5166H53.4705L52.2806 84.5727H45.1444Z" fill="#DBD1C8"/>
<path d="M43.3578 81.5166H39.1157L36.6073 85.8617H41.0934L43.3578 81.5166Z" fill="#DBD1C8"/>
<path d="M57.1886 81.5166L56.6744 83.0166H64.3511L63.6589 85.8617H70.8743L71.5434 81.5166H57.1886Z" fill="#DBD1C8"/>
<path d="M53.4771 92.3959L54.0704 90.6519H61.6252L61.1868 92.3959H53.4771Z" fill="#DBD1C8"/>
<path d="M140.73 90.0652C143.018 90.0652 145.397 90.7938 146.06 91.7103C146.736 92.6466 145.368 93.4213 142.991 93.4213C140.615 93.4213 138.205 92.6466 137.618 91.7103C137.045 90.7938 138.442 90.0652 140.73 90.0652Z" fill="#616161"/>
<path d="M25.0674 89.1122L21.3592 94.4728C21.1054 94.8387 21.6262 95.1354 22.5194 95.1354C23.4127 95.1354 24.3356 94.8354 24.573 94.4728L28.0867 89.1122C28.2976 88.7924 27.7933 88.532 26.966 88.532C26.1386 88.5353 25.2882 88.7924 25.0674 89.1122Z" fill="#616161"/>
<path d="M42.4382 46.0232C44.1291 46.0232 45.5003 47.3947 45.5003 49.0859H39.3793C39.3793 47.3914 40.7506 46.0232 42.4382 46.0232Z" fill="white"/>
<path d="M51.1038 43.478C54.1989 43.478 56.7073 45.9869 56.7073 49.0826H45.497C45.5003 45.9869 48.0087 43.478 51.1038 43.478Z" fill="white"/>
<path d="M114.848 74.2405C116.539 74.2405 117.911 75.6119 117.911 77.3032H111.79C111.786 75.6119 113.158 74.2405 114.848 74.2405Z" fill="white"/>
<path d="M123.514 71.6953C126.609 71.6953 129.118 74.2042 129.118 77.2998H117.907C117.911 74.2042 120.419 71.6953 123.514 71.6953Z" fill="white"/>
<path d="M144.758 65.3853C146.449 65.3853 147.82 66.7567 147.82 68.448H141.699C141.696 66.7567 143.067 65.3853 144.758 65.3853Z" fill="white"/>
<path d="M153.424 62.8401C156.519 62.8401 159.027 65.3489 159.027 68.4446H147.817C147.817 65.3522 150.328 62.8401 153.424 62.8401Z" fill="white"/>
<path opacity="0.2" d="M83.3338 104.696C94.5349 104.696 103.615 102.302 103.615 99.3486C103.615 96.3953 94.5349 94.0012 83.3338 94.0012C72.1327 94.0012 63.0524 96.3953 63.0524 99.3486C63.0524 102.302 72.1327 104.696 83.3338 104.696Z" fill="#424242"/>
<path d="M83.3338 19.1147C65.6367 19.1147 51.2884 33.4657 51.2884 51.1661C51.2884 68.8666 83.3338 99.352 83.3338 99.352C83.3338 99.352 115.379 68.8699 115.379 51.1661C115.376 33.4657 101.031 19.1147 83.3338 19.1147ZM83.3338 69.1501C73.4024 69.1501 65.3532 61.0993 65.3532 51.1661C65.3532 41.2329 73.4024 33.1821 83.3338 33.1821C93.2652 33.1821 101.314 41.2329 101.314 51.1661C101.311 61.0993 93.2619 69.1501 83.3338 69.1501Z" fill="#F20707"/>
<path d="M83.3338 29.6875C71.4742 29.6875 61.8592 39.3042 61.8592 51.1661C61.8592 63.0279 71.4742 72.6446 83.3338 72.6446C95.1934 72.6446 104.808 63.0279 104.808 51.1661C104.805 39.3042 95.1934 29.6875 83.3338 29.6875ZM83.3338 65.6423C75.3406 65.6423 68.857 59.1608 68.857 51.1628C68.857 43.1681 75.3373 36.6833 83.3338 36.6833C91.327 36.6833 97.8106 43.1648 97.8106 51.1628C97.8073 59.1608 91.327 65.6423 83.3338 65.6423Z" fill="#8C1D04"/>
<path d="M117.729 49.3433C113.418 49.3433 109.924 52.8379 109.924 57.1501H125.531C125.535 52.8379 122.041 49.3433 117.729 49.3433Z" fill="white"/>
<path d="M81.7253 52.3103C79.0554 52.3103 76.8898 54.4763 76.8898 57.1467H86.5607C86.5607 54.4763 84.3952 52.3103 81.7253 52.3103Z" fill="white"/>
<path d="M98.2423 45.4629C91.7917 45.4629 86.5607 50.6949 86.5607 57.1467H109.924C109.927 50.6949 104.696 45.4629 98.2423 45.4629Z" fill="white"/>
<path d="M23.9698 55.0002C22.0876 55.0002 20.5648 56.5267 20.5648 58.4058H27.378C27.3747 56.5267 25.8519 55.0002 23.9698 55.0002Z" fill="white"/>
<path d="M14.3252 52.1685C10.8807 52.1685 8.08881 54.9608 8.08881 58.406H20.5648C20.5615 54.9641 17.7697 52.1685 14.3252 52.1685Z" fill="white"/>
<path d="M45.4377 32.5195C43.5556 32.5195 42.0328 34.0459 42.0328 35.9251H48.846C48.846 34.0459 47.3198 32.5195 45.4377 32.5195Z" fill="white"/>
<path d="M35.7931 29.6877C32.3486 29.6877 29.5568 32.4801 29.5568 35.9253H42.0328C42.0328 32.4834 39.2376 29.6877 35.7931 29.6877Z" fill="white"/>
<path d="M124.902 21.9465C123.02 21.9465 121.497 23.4729 121.497 25.3521H128.31C128.307 23.4729 126.781 21.9465 124.902 21.9465Z" fill="white"/>
<path d="M115.257 19.1147C111.813 19.1147 109.021 21.9071 109.021 25.3523H121.497C121.494 21.9104 118.702 19.1147 115.257 19.1147Z" fill="white"/>
<path d="M47.2539 67.647C45.8036 67.647 44.6236 68.8239 44.6236 70.2778H49.881C49.8842 68.8239 48.7075 67.647 47.2539 67.647Z" fill="white"/>
<path d="M39.8111 65.4612C37.1511 65.4612 34.9954 67.6173 34.9954 70.2778H44.6236C44.6236 67.6173 42.4712 65.4612 39.8111 65.4612Z" fill="white"/>
<path d="M149.541 44.8528C147.659 44.8528 146.136 46.3792 146.136 48.2584H152.949C152.946 46.3792 151.423 44.8528 149.541 44.8528Z" fill="white"/>
<path d="M139.896 42.021C136.452 42.021 133.66 44.8134 133.66 48.2585H146.136C146.136 44.8134 143.341 42.021 139.896 42.021Z" fill="white"/>
<path d="M106.835 80.7055H106.384V80.2538C106.384 80.1352 106.288 80.0396 106.17 80.0396C106.051 80.0396 105.955 80.1352 105.955 80.2538V80.7055H105.504C105.385 80.7055 105.29 80.8011 105.29 80.9198C105.29 81.0385 105.385 81.1341 105.504 81.1341H105.955V81.5857C105.955 81.7044 106.051 81.8 106.17 81.8C106.288 81.8 106.384 81.7044 106.384 81.5857V81.1341H106.835C106.954 81.1341 107.05 81.0385 107.05 80.9198C107.05 80.8011 106.954 80.7055 106.835 80.7055Z" fill="#D2ECFC"/>
</svg>
